<?xml version="1.0" encoding="iso-8859-1"?>
<!-- Generator: Adobe Illustrator 19.0.0, SVG Export Plug-In . SVG Version: 6.00 Build 0)  -->
<svg version="1.1" id="Layer_1" xmlns="http://www.w3.org/2000/svg" xmlns:xlink="http://www.w3.org/1999/xlink" x="0px" y="0px"
	 viewBox="0 0 508 508" style="enable-background:new 0 0 508 508;" xml:space="preserve">
<circle style="fill:#54C0EB;" cx="254" cy="254" r="254"/>
<path style="fill:#84DBFF;" d="M74.8,434c46,45.6,109.2,74,179.2,74s133.2-28.4,179.2-74H74.8z"/>
<rect x="214.8" y="368.8" style="fill:#FFFFFF;" width="78.4" height="41.6"/>
<g>
	<rect x="214.8" y="368.8" style="fill:#E6E9EE;" width="78.4" height="9.2"/>
	<path style="fill:#E6E9EE;" d="M326.8,434H181.2l0,0c0-13.2,10.8-24,24-24h97.6C316,410.4,326.8,420.8,326.8,434L326.8,434z"/>
</g>
<path style="fill:#324A5E;" d="M410,368.8H98c-9.6,0-17.6-8-17.6-17.6V136.8c0-9.6,8-17.6,17.6-17.6h312c9.6,0,17.6,8,17.6,17.6
	v214.8C427.6,360.8,419.6,368.8,410,368.8z"/>
<g>
	<path style="fill:#FFFFFF;" d="M80.4,334v17.6c0,9.6,7.6,17.2,17.2,17.2H410c9.6,0,17.2-7.6,17.2-17.2V334H80.4z"/>
	<rect x="93.6" y="131.6" style="fill:#FFFFFF;" width="321.2" height="187.6"/>
</g>
<circle style="fill:#FF7058;" cx="399.2" cy="351.2" r="8"/>
<circle style="fill:#4CDBC4;" cx="376.8" cy="351.2" r="8"/>
<circle style="fill:#54C0EB;" cx="354.4" cy="351.2" r="8"/>
<rect x="127.2" y="184.8" style="fill:#ACB3BA;" width="38.8" height="110.8"/>
<rect x="180.8" y="232.8" style="fill:#4CDBC4;" width="38.8" height="63.2"/>
<rect x="234.4" y="203.2" style="fill:#FFD05B;" width="38.8" height="92.4"/>
<rect x="288.4" y="152.8" style="fill:#84DBFF;" width="38.8" height="142.8"/>
<rect x="342" y="263.2" style="fill:#FF7058;" width="38.8" height="32.4"/>
<g>
</g>
<g>
</g>
<g>
</g>
<g>
</g>
<g>
</g>
<g>
</g>
<g>
</g>
<g>
</g>
<g>
</g>
<g>
</g>
<g>
</g>
<g>
</g>
<g>
</g>
<g>
</g>
<g>
</g>
</svg>
